ffmpeg version 2.1.3 Copyright (c) 2000-2013 the FFmpeg developers
  built on Sep 23 2014 15:46:02 with Apple LLVM version 4.2 (clang-425.0.24) (based on LLVM 3.2svn)
  configuration: --prefix=/usr/local/Cellar/ffmpeg/2.1.3 --enable-shared --enable-pthreads --enable-gpl --enable-version3 --enable-nonfree --enable-hardcoded-tables --enable-avresample --enable-vda --cc=clang --host-cflags= --host-ldflags= --enable-libx264 --enable-libfaac --enable-libmp3lame --enable-libxvid
  libavutil      52. 48.101 / 52. 48.101
  libavcodec     55. 39.101 / 55. 39.101
  libavformat    55. 19.104 / 55. 19.104
  libavdevice    55.  5.100 / 55.  5.100
  libavfilter     3. 90.100 /  3. 90.100
  libavresample   1.  1.  0 /  1.  1.  0
  libswscale      2.  5.101 /  2.  5.101
  libswresample   0. 17.104 /  0. 17.104
  libpostproc    52.  3.100 / 52.  3.100
Input #0, mov,mp4,m4a,3gp,3g2,mj2, from '/Users/giuseppebecchi/Documents/htdocs/Loki/web/media/video/movie-bear.mp4':
  Metadata:
    major_brand     : isom
    minor_version   : 512
    compatible_brands: isomiso2avc1mp41
    creation_time   : 1970-01-01 00:00:00
    encoder         : Lavf52.31.0
  Duration: 00:00:12.62, start: 0.000000, bitrate: 605 kb/s
    Stream #0:0(und): Video: h264 (High) (avc1 / 0x31637661), yuv420p, 320x240, 502 kb/s, 29.65 fps, 29.97 tbr, 30k tbn, 59.94 tbc (default)
    Metadata:
      creation_time   : 1970-01-01 00:00:00
      handler_name    : VideoHandler
    Stream #0:1(und): Audio: mp3 (mp4a / 0x6134706D), 44100 Hz, stereo, s16p, 96 kb/s (default)
    Metadata:
      creation_time   : 1970-01-01 00:00:00
      handler_name    : SoundHandler
Please use -b:a or -b:v, -b is ambiguous
[NULL @ 0x7fd6a0834a00] [Eval @ 0x7fff6da0af50] Undefined constant or missing '(' in 'bpyramid'
[NULL @ 0x7fd6a0834a00] Unable to parse option value "bpyramid+wpred+mixed_refs+dct8x8"
[NULL @ 0x7fd6a0834a00] Error setting option flags2 to value +bpyramid+wpred+mixed_refs+dct8x8.
Output #0, mp4, to '/Users/giuseppebecchi/Documents/htdocs/Loki/web/media/video/movie-bear.mp4_tmp.mp4':
  Metadata:
    major_brand     : isom
    minor_version   : 512
    compatible_brands: isomiso2avc1mp41
    encoder         : Lavf52.31.0
    Stream #0:0(und): Video: h264, yuv420p, 320x240, q=-1--1, pass 1, 512 kb/s, 90k tbn, 29.97 tbc (default)
    Metadata:
      creation_time   : 1970-01-01 00:00:00
      handler_name    : VideoHandler
Stream mapping:
  Stream #0:0 -> #0:0 (h264 -> libx264)
Error while opening encoder for output stream #0:0 - maybe incorrect parameters such as bit_rate, rate, width or height
ffmpeg version 2.1.3 Copyright (c) 2000-2013 the FFmpeg developers
  built on Sep 23 2014 15:46:02 with Apple LLVM version 4.2 (clang-425.0.24) (based on LLVM 3.2svn)
  configuration: --prefix=/usr/local/Cellar/ffmpeg/2.1.3 --enable-shared --enable-pthreads --enable-gpl --enable-version3 --enable-nonfree --enable-hardcoded-tables --enable-avresample --enable-vda --cc=clang --host-cflags= --host-ldflags= --enable-libx264 --enable-libfaac --enable-libmp3lame --enable-libxvid
  libavutil      52. 48.101 / 52. 48.101
  libavcodec     55. 39.101 / 55. 39.101
  libavformat    55. 19.104 / 55. 19.104
  libavdevice    55.  5.100 / 55.  5.100
  libavfilter     3. 90.100 /  3. 90.100
  libavresample   1.  1.  0 /  1.  1.  0
  libswscale      2.  5.101 /  2.  5.101
  libswresample   0. 17.104 /  0. 17.104
  libpostproc    52.  3.100 / 52.  3.100
Input #0, mov,mp4,m4a,3gp,3g2,mj2, from '/Users/giuseppebecchi/Documents/htdocs/Loki/web/media/video/movie-bear.mp4':
  Metadata:
    major_brand     : isom
    minor_version   : 512
    compatible_brands: isomiso2avc1mp41
    creation_time   : 1970-01-01 00:00:00
    encoder         : Lavf52.31.0
  Duration: 00:00:12.62, start: 0.000000, bitrate: 605 kb/s
    Stream #0:0(und): Video: h264 (High) (avc1 / 0x31637661), yuv420p, 320x240, 502 kb/s, 29.65 fps, 29.97 tbr, 30k tbn, 59.94 tbc (default)
    Metadata:
      creation_time   : 1970-01-01 00:00:00
      handler_name    : VideoHandler
    Stream #0:1(und): Audio: mp3 (mp4a / 0x6134706D), 44100 Hz, stereo, s16p, 96 kb/s (default)
    Metadata:
      creation_time   : 1970-01-01 00:00:00
      handler_name    : SoundHandler
Please use -b:a or -b:v, -b is ambiguous
[NULL @ 0x7f9869034a00] [Eval @ 0x7fff6abd5f10] Undefined constant or missing '(' in 'bpyramid'
[NULL @ 0x7f9869034a00] Unable to parse option value "bpyramid+wpred+mixed_refs+dct8x8"
[NULL @ 0x7f9869034a00] Error setting option flags2 to value +bpyramid+wpred+mixed_refs+dct8x8.
Output #0, mp4, to '/Users/giuseppebecchi/Documents/htdocs/Loki/web/media/video/movie-bear.mp4_tmp.mp4':
  Metadata:
    major_brand     : isom
    minor_version   : 512
    compatible_brands: isomiso2avc1mp41
    encoder         : Lavf52.31.0
    Stream #0:0(und): Video: h264, yuv420p, 320x240, q=-1--1, pass 2, 512 kb/s, 90k tbn, 29.97 tbc (default)
    Metadata:
      creation_time   : 1970-01-01 00:00:00
      handler_name    : VideoHandler
    Stream #0:1(und): Audio: mp3, 44100 Hz, stereo, s16p (default)
    Metadata:
      creation_time   : 1970-01-01 00:00:00
      handler_name    : SoundHandler
Stream mapping:
  Stream #0:0 -> #0:0 (h264 -> libx264)
  Stream #0:1 -> #0:1 (mp3 -> libmp3lame)
Error while opening encoder for output stream #0:0 - maybe incorrect parameters such as bit_rate, rate, width or height
decoder.sh: line 20: qt-faststart: command not found
ffmpeg version 2.1.3 Copyright (c) 2000-2013 the FFmpeg developers
  built on Sep 23 2014 15:46:02 with Apple LLVM version 4.2 (clang-425.0.24) (based on LLVM 3.2svn)
  configuration: --prefix=/usr/local/Cellar/ffmpeg/2.1.3 --enable-shared --enable-pthreads --enable-gpl --enable-version3 --enable-nonfree --enable-hardcoded-tables --enable-avresample --enable-vda --cc=clang --host-cflags= --host-ldflags= --enable-libx264 --enable-libfaac --enable-libmp3lame --enable-libxvid
  libavutil      52. 48.101 / 52. 48.101
  libavcodec     55. 39.101 / 55. 39.101
  libavformat    55. 19.104 / 55. 19.104
  libavdevice    55.  5.100 / 55.  5.100
  libavfilter     3. 90.100 /  3. 90.100
  libavresample   1.  1.  0 /  1.  1.  0
  libswscale      2.  5.101 /  2.  5.101
  libswresample   0. 17.104 /  0. 17.104
  libpostproc    52.  3.100 / 52.  3.100
Input #0, mov,mp4,m4a,3gp,3g2,mj2, from '/Users/giuseppebecchi/Documents/htdocs/Loki/web/media/video/movie-bear.mp4':
  Metadata:
    major_brand     : isom
    minor_version   : 512
    compatible_brands: isomiso2avc1mp41
    creation_time   : 1970-01-01 00:00:00
    encoder         : Lavf52.31.0
  Duration: 00:00:12.62, start: 0.000000, bitrate: 605 kb/s
    Stream #0:0(und): Video: h264 (High) (avc1 / 0x31637661), yuv420p, 320x240, 502 kb/s, 29.65 fps, 29.97 tbr, 30k tbn, 59.94 tbc (default)
    Metadata:
      creation_time   : 1970-01-01 00:00:00
      handler_name    : VideoHandler
    Stream #0:1(und): Audio: mp3 (mp4a / 0x6134706D), 44100 Hz, stereo, s16p, 96 kb/s (default)
    Metadata:
      creation_time   : 1970-01-01 00:00:00
      handler_name    : SoundHandler
[swscaler @ 0x7fb50401e000] deprecated pixel format used, make sure you did set range correctly
Output #0, image2, to '/Users/giuseppebecchi/Documents/htdocs/Loki/web/media/video/thumb/movie-bear.mp4.jpg':
  Metadata:
    major_brand     : isom
    minor_version   : 512
    compatible_brands: isomiso2avc1mp41
    encoder         : Lavf55.19.104
    Stream #0:0(und): Video: mjpeg, yuvj420p, 320x240, q=2-31, 200 kb/s, 90k tbn, 29.97 tbc (default)
    Metadata:
      creation_time   : 1970-01-01 00:00:00
      handler_name    : VideoHandler
Stream mapping:
  Stream #0:0 -> #0:0 (h264 -> mjpeg)
Press [q] to stop, [?] for help
frame=    1 fps=0.0 q=0.0 Lsize=N/A time=00:00:00.03 bitrate=N/A    
video:11kB audio:0kB subtitle:0 global headers:0kB muxing overhead -100.188098%
